<svg xmlns="http://www.w3.org/2000/svg" viewBox="70.0 90.0 410.0 410.0" width="100%" height="100%">
  <!-- Được tinh chỉnh thiết kế cho thương hiệu OSMO -->
  
  <path d="M 292.5 125 C 210.5 125 106.5 178 78.5 285 C 50.5 392 110.5 480 252.5 480 C 374.5 480 448.5 392 448.5 285 C 448.5 210 400.5 170 330.5 145 C 312.5 138.5 292.5 131.5 272.5 126 C 262.5 123.5 258.5 118 262.5 112 C 266.5 106 280.5 108 295.5 110 C 360.5 118 425.5 145 478.5 115 C 452.5 145 408.5 160 355.5 160 C 295.5 160 258.5 135 233.5 215 C 230.5 225 240.5 232 250.5 232 C 285.5 232 342.5 185 382.5 210 C 402.5 222.5 408.5 242 408.5 265 C 408.5 355 348.5 440 252.5 440 C 160.5 440 120.5 375 120.5 305 C 120.5 225 180.5 155 292.5 155 Z" fill="#BC7456" fill-rule="evenodd" />
</svg>