<svg width="128" height="128" viewBox="0 0 128 128" fill="none" xmlns="http://www.w3.org/2000/svg">
  <!-- Optimized Hamster Minimalist (Phase 11: SVG Edition) -->
  <path d="M64 20C40 20 20 40 20 64C20 88 40 108 64 108C88 108 108 88 108 64C108 40 88 20 64 20ZM64 98C45.2 98 30 82.8 30 64C30 45.2 45.2 30 64 30C82.8 30 98 45.2 98 64C98 82.8 82.8 98 64 98Z" fill="#D4AF37"/>
  <path d="M64 45C58 45 53 50 53 56C53 62 58 67 64 67C70 67 75 62 75 56C75 50 70 45 64 45ZM64 60C61.8 60 60 58.2 60 56C60 53.8 61.8 52 64 52C66.2 52 68 53.8 68 56C68 58.2 66.2 60 64 60Z" fill="#D4AF37"/>
  <path d="M64 72C60 72 58 74 58 76C58 78 60 80 64 80C68 80 70 78 70 76C70 74 68 72 64 72Z" fill="#D4AF37"/>
  <circle cx="50" cy="56" r="3" fill="#D4AF37"/>
  <circle cx="78" cy="56" r="3" fill="#D4AF37"/>
</svg>
